<svg xmlns="http://www.w3.org/2000/svg" xmlns:xlink="http://www.w3.org/1999/xlink" width="370" zoomAndPan="magnify" viewBox="0 0 277.5 74.999997" height="100" preserveAspectRatio="xMidYMid meet" version="1.0"><defs><g/><clipPath id="253231bb90"><path d="M 0 0.0664062 L 277 0.0664062 L 277 74.929688 L 0 74.929688 Z M 0 0.0664062 " clip-rule="nonzero"/></clipPath><clipPath id="37b1b25770"><path d="M 22.664062 11.382812 L 57 11.382812 L 57 63.789062 L 22.664062 63.789062 Z M 22.664062 11.382812 " clip-rule="nonzero"/></clipPath><clipPath id="a3f518ed2b"><path d="M 22.664062 11.382812 L 57 11.382812 L 57 51 L 22.664062 51 Z M 22.664062 11.382812 " clip-rule="nonzero"/></clipPath><clipPath id="25606b5d6b"><path d="M 68 11.382812 L 78.8125 11.382812 L 78.8125 22 L 68 22 Z M 68 11.382812 " clip-rule="nonzero"/></clipPath><clipPath id="488f794f13"><path d="M 44 12 L 78.8125 12 L 78.8125 63.789062 L 44 63.789062 Z M 44 12 " clip-rule="nonzero"/></clipPath><clipPath id="f0b7c6835a"><path d="M 44 12 L 78.8125 12 L 78.8125 51 L 44 51 Z M 44 12 " clip-rule="nonzero"/></clipPath></defs><g clip-path="url(#253231bb90)"><path fill="#ffffff" d="M 0 0.0664062 L 277 0.0664062 L 277 74.933594 L 0 74.933594 Z M 0 0.0664062 " fill-opacity="1" fill-rule="nonzero"/><path fill="#ffffff" d="M 0 0.0664062 L 277 0.0664062 L 277 74.933594 L 0 74.933594 Z M 0 0.0664062 " fill-opacity="1" fill-rule="nonzero"/></g><g clip-path="url(#37b1b25770)"><path fill="#72ffff" d="M 36.035156 14 L 54.105469 32.070312 C 54.46875 32.433594 54.792969 32.828125 55.082031 33.253906 C 55.367188 33.683594 55.605469 34.136719 55.804688 34.609375 C 56 35.085938 56.148438 35.574219 56.25 36.078125 C 56.351562 36.585938 56.398438 37.09375 56.398438 37.609375 C 56.398438 38.121094 56.351562 38.632812 56.25 39.136719 C 56.148438 39.640625 56 40.128906 55.804688 40.605469 C 55.605469 41.082031 55.367188 41.53125 55.082031 41.960938 C 54.792969 42.386719 54.46875 42.785156 54.105469 43.148438 L 36.035156 61.21875 C 31.101562 66.152344 22.660156 62.65625 22.664062 55.671875 L 22.664062 19.53125 C 22.660156 12.558594 31.101562 9.0625 36.035156 14 Z M 36.035156 14 " fill-opacity="1" fill-rule="nonzero"/></g><g clip-path="url(#a3f518ed2b)"><path fill="#00d7ff" d="M 36.035156 14 C 31.128906 9.089844 22.785156 12.519531 22.667969 19.414062 C 22.667969 19.414062 51.101562 46.320312 46.582031 50.703125 L 54.121094 43.164062 C 54.484375 42.800781 54.808594 42.402344 55.097656 41.976562 C 55.382812 41.546875 55.625 41.097656 55.820312 40.621094 C 56.015625 40.148438 56.164062 39.65625 56.265625 39.152344 C 56.367188 38.648438 56.417969 38.136719 56.417969 37.625 C 56.417969 37.109375 56.367188 36.601562 56.265625 36.097656 C 56.164062 35.589844 56.015625 35.101562 55.820312 34.625 C 55.625 34.152344 55.382812 33.699219 55.097656 33.273438 C 54.808594 32.84375 54.484375 32.449219 54.121094 32.085938 Z M 36.035156 14 " fill-opacity="1" fill-rule="nonzero"/></g><g clip-path="url(#25606b5d6b)"><path fill="#590696" d="M 78.882812 16.558594 C 78.882812 16.894531 78.851562 17.230469 78.785156 17.558594 C 78.71875 17.886719 78.621094 18.207031 78.492188 18.519531 C 78.363281 18.828125 78.207031 19.125 78.019531 19.40625 C 77.832031 19.683594 77.621094 19.941406 77.382812 20.179688 C 77.144531 20.417969 76.886719 20.628906 76.605469 20.816406 C 76.328125 21.003906 76.03125 21.160156 75.722656 21.289062 C 75.410156 21.417969 75.089844 21.515625 74.761719 21.582031 C 74.429688 21.648438 74.097656 21.679688 73.761719 21.679688 C 73.425781 21.679688 73.09375 21.648438 72.761719 21.582031 C 72.433594 21.515625 72.113281 21.417969 71.804688 21.289062 C 71.492188 21.160156 71.199219 21.003906 70.917969 20.816406 C 70.636719 20.628906 70.378906 20.417969 70.140625 20.179688 C 69.90625 19.941406 69.691406 19.683594 69.503906 19.40625 C 69.320312 19.125 69.160156 18.828125 69.03125 18.519531 C 68.902344 18.207031 68.804688 17.886719 68.742188 17.558594 C 68.675781 17.230469 68.640625 16.894531 68.640625 16.558594 C 68.640625 16.222656 68.675781 15.890625 68.742188 15.5625 C 68.804688 15.230469 68.902344 14.910156 69.03125 14.601562 C 69.160156 14.289062 69.320312 13.996094 69.503906 13.714844 C 69.691406 13.4375 69.90625 13.175781 70.140625 12.941406 C 70.378906 12.703125 70.636719 12.488281 70.917969 12.304688 C 71.199219 12.117188 71.492188 11.957031 71.804688 11.828125 C 72.113281 11.703125 72.433594 11.605469 72.761719 11.539062 C 73.09375 11.472656 73.425781 11.441406 73.761719 11.441406 C 74.097656 11.441406 74.429688 11.472656 74.761719 11.539062 C 75.089844 11.605469 75.410156 11.703125 75.722656 11.828125 C 76.03125 11.957031 76.328125 12.117188 76.605469 12.304688 C 76.886719 12.488281 77.144531 12.703125 77.382812 12.941406 C 77.621094 13.175781 77.832031 13.4375 78.019531 13.714844 C 78.207031 13.996094 78.363281 14.289062 78.492188 14.601562 C 78.621094 14.910156 78.71875 15.230469 78.785156 15.5625 C 78.851562 15.890625 78.882812 16.222656 78.882812 16.558594 Z M 78.882812 16.558594 " fill-opacity="1" fill-rule="nonzero"/><path fill="#590696" d="M 78.882812 16.558594 C 78.882812 16.894531 78.851562 17.230469 78.785156 17.558594 C 78.71875 17.886719 78.621094 18.207031 78.492188 18.519531 C 78.363281 18.828125 78.207031 19.125 78.019531 19.40625 C 77.832031 19.683594 77.621094 19.941406 77.382812 20.179688 C 77.144531 20.417969 76.886719 20.628906 76.605469 20.816406 C 76.328125 21.003906 76.03125 21.160156 75.722656 21.289062 C 75.410156 21.417969 75.089844 21.515625 74.761719 21.582031 C 74.429688 21.648438 74.097656 21.679688 73.761719 21.679688 C 73.425781 21.679688 73.09375 21.648438 72.761719 21.582031 C 72.433594 21.515625 72.113281 21.417969 71.804688 21.289062 C 71.492188 21.160156 71.199219 21.003906 70.917969 20.816406 C 70.636719 20.628906 70.378906 20.417969 70.140625 20.179688 C 69.90625 19.941406 69.691406 19.683594 69.503906 19.40625 C 69.320312 19.125 69.160156 18.828125 69.03125 18.519531 C 68.902344 18.207031 68.804688 17.886719 68.742188 17.558594 C 68.675781 17.230469 68.640625 16.894531 68.640625 16.558594 C 68.640625 16.222656 68.675781 15.890625 68.742188 15.5625 C 68.804688 15.230469 68.902344 14.910156 69.03125 14.601562 C 69.160156 14.289062 69.320312 13.996094 69.503906 13.714844 C 69.691406 13.4375 69.90625 13.175781 70.140625 12.941406 C 70.378906 12.703125 70.636719 12.488281 70.917969 12.304688 C 71.199219 12.117188 71.492188 11.957031 71.804688 11.828125 C 72.113281 11.703125 72.433594 11.605469 72.761719 11.539062 C 73.09375 11.472656 73.425781 11.441406 73.761719 11.441406 C 74.097656 11.441406 74.429688 11.472656 74.761719 11.539062 C 75.089844 11.605469 75.410156 11.703125 75.722656 11.828125 C 76.03125 11.957031 76.328125 12.117188 76.605469 12.304688 C 76.886719 12.488281 77.144531 12.703125 77.382812 12.941406 C 77.621094 13.175781 77.832031 13.4375 78.019531 13.714844 C 78.207031 13.996094 78.363281 14.289062 78.492188 14.601562 C 78.621094 14.910156 78.71875 15.230469 78.785156 15.5625 C 78.851562 15.890625 78.882812 16.222656 78.882812 16.558594 Z M 78.882812 16.558594 " fill-opacity="1" fill-rule="nonzero"/></g><g clip-path="url(#488f794f13)"><path fill="#0096ff" d="M 76.585938 32.113281 L 58.515625 14.042969 C 53.664062 9.1875 40.734375 14.816406 45.160156 19.242188 L 58.152344 32.242188 C 58.519531 32.605469 58.84375 33 59.128906 33.425781 C 59.414062 33.855469 59.65625 34.304688 59.851562 34.78125 C 60.050781 35.257812 60.199219 35.746094 60.296875 36.25 C 60.398438 36.753906 60.449219 37.265625 60.449219 37.777344 C 60.449219 38.292969 60.398438 38.800781 60.296875 39.308594 C 60.199219 39.8125 60.050781 40.300781 59.851562 40.777344 C 59.65625 41.25 59.414062 41.703125 59.128906 42.128906 C 58.84375 42.558594 58.519531 42.953125 58.152344 43.316406 L 45.167969 56.308594 C 41.207031 60.261719 53.710938 66.097656 58.515625 61.292969 L 76.585938 43.222656 C 76.953125 42.859375 77.277344 42.464844 77.566406 42.035156 C 77.855469 41.605469 78.097656 41.152344 78.296875 40.675781 C 78.492188 40.199219 78.644531 39.707031 78.746094 39.203125 C 78.84375 38.695312 78.894531 38.183594 78.894531 37.667969 C 78.894531 37.152344 78.84375 36.640625 78.746094 36.132812 C 78.644531 35.628906 78.492188 35.136719 78.296875 34.660156 C 78.097656 34.183594 77.855469 33.730469 77.566406 33.300781 C 77.277344 32.871094 76.953125 32.476562 76.585938 32.113281 Z M 76.585938 32.113281 " fill-opacity="1" fill-rule="nonzero"/></g><g clip-path="url(#f0b7c6835a)"><path fill="#5800ff" d="M 76.585938 32.113281 L 58.515625 14.042969 C 53.664062 9.1875 40.734375 14.816406 45.160156 19.242188 L 58.152344 32.242188 C 59.445312 33.53125 60.191406 35.085938 60.394531 36.898438 C 64.871094 42.15625 68.59375 47.257812 69.371094 50.441406 L 76.597656 43.210938 C 76.960938 42.847656 77.289062 42.449219 77.574219 42.023438 C 77.859375 41.59375 78.101562 41.140625 78.300781 40.664062 C 78.496094 40.1875 78.644531 39.699219 78.746094 39.191406 C 78.847656 38.6875 78.898438 38.175781 78.894531 37.660156 C 78.894531 37.144531 78.84375 36.632812 78.742188 36.128906 C 78.640625 35.621094 78.492188 35.132812 78.292969 34.65625 C 78.09375 34.179688 77.851562 33.726562 77.566406 33.300781 C 77.277344 32.871094 76.949219 32.476562 76.585938 32.113281 Z M 76.585938 32.113281 " fill-opacity="1" fill-rule="nonzero"/></g><g fill="#231f20" fill-opacity="1"><g transform="translate(89.732656, 50.674536)"><g><path d="M 12.519531 0 L 12.519531 -20.46875 L 19.804688 -20.46875 L 19.804688 -24.464844 L 0.773438 -24.464844 L 0.773438 -20.46875 L 8.058594 -20.46875 L 8.058594 0 Z M 12.519531 0 "/></g></g></g><g fill="#231f20" fill-opacity="1"><g transform="translate(110.308839, 50.674536)"><g><path d="M 10.953125 0.558594 C 16.65625 0.558594 20.738281 -3.796875 20.738281 -9.246094 C 20.738281 -14.660156 16.65625 -19.050781 10.972656 -19.050781 C 5.304688 -19.050781 1.242188 -14.640625 1.242188 -9.246094 C 1.242188 -3.8125 5.324219 0.558594 10.953125 0.558594 Z M 10.992188 -3.488281 C 7.878906 -3.488281 5.558594 -5.898438 5.558594 -9.246094 C 5.558594 -12.574219 7.878906 -15.019531 10.992188 -15.019531 C 14.101562 -15.019531 16.421875 -12.574219 16.421875 -9.246094 C 16.421875 -5.898438 14.101562 -3.488281 10.992188 -3.488281 Z M 10.992188 -3.488281 "/></g></g></g><g fill="#231f20" fill-opacity="1"><g transform="translate(132.287943, 50.674536)"><g><path d="M 10.179688 0.558594 C 13.273438 0.558594 15.488281 -1.167969 16.585938 -3.113281 L 16.585938 0 L 20.722656 0 L 20.722656 -25.328125 L 16.386719 -25.328125 L 16.386719 -17.394531 L 16.476562 -15.46875 C 15.503906 -17.214844 13.257812 -19.050781 10.234375 -19.050781 C 4.839844 -19.050781 1.242188 -14.640625 1.242188 -9.246094 C 1.242188 -3.8125 4.929688 0.558594 10.179688 0.558594 Z M 10.972656 -3.453125 C 7.789062 -3.453125 5.523438 -5.972656 5.523438 -9.246094 C 5.523438 -12.609375 7.898438 -15.019531 10.972656 -15.019531 C 14.03125 -15.019531 16.421875 -12.484375 16.421875 -9.246094 C 16.421875 -5.972656 14.011719 -3.453125 10.972656 -3.453125 Z M 10.972656 -3.453125 "/></g></g></g><g fill="#231f20" fill-opacity="1"><g transform="translate(155.544065, 50.674536)"><g><path d="M 10.953125 0.558594 C 16.65625 0.558594 20.738281 -3.796875 20.738281 -9.246094 C 20.738281 -14.660156 16.65625 -19.050781 10.972656 -19.050781 C 5.304688 -19.050781 1.242188 -14.640625 1.242188 -9.246094 C 1.242188 -3.8125 5.324219 0.558594 10.953125 0.558594 Z M 10.992188 -3.488281 C 7.878906 -3.488281 5.558594 -5.898438 5.558594 -9.246094 C 5.558594 -12.574219 7.878906 -15.019531 10.992188 -15.019531 C 14.101562 -15.019531 16.421875 -12.574219 16.421875 -9.246094 C 16.421875 -5.898438 14.101562 -3.488281 10.992188 -3.488281 Z M 10.992188 -3.488281 "/></g></g></g><g fill="#231f20" fill-opacity="1"><g transform="translate(177.523169, 50.674536)"><g><path d="M 18.4375 0 L 18.4375 -4.011719 L 7.394531 -4.011719 L 7.394531 -24.464844 L 2.914062 -24.464844 L 2.914062 0 Z M 18.4375 0 "/></g></g></g><g fill="#231f20" fill-opacity="1"><g transform="translate(196.678444, 50.674536)"><g><path d="M 4.695312 -21.371094 C 6.457031 -21.371094 7.445312 -22.464844 7.445312 -23.871094 C 7.445312 -25.21875 6.457031 -26.351562 4.710938 -26.351562 C 3.003906 -26.351562 2.015625 -25.21875 2.015625 -23.871094 C 2.015625 -22.484375 3.023438 -21.371094 4.695312 -21.371094 Z M 6.90625 0 L 6.90625 -18.492188 L 2.554688 -18.492188 L 2.554688 0 Z M 6.90625 0 "/></g></g></g><g fill="#231f20" fill-opacity="1"><g transform="translate(206.121185, 50.674536)"><g><path d="M 9.210938 0.558594 C 13.671875 0.558594 16.980469 -1.421875 16.980469 -5.484375 C 16.980469 -9.40625 13.996094 -10.523438 10.164062 -11.097656 C 6.980469 -11.601562 6.296875 -12.050781 6.296875 -13.4375 C 6.296875 -14.550781 7.125 -15.488281 8.992188 -15.488281 C 11.007812 -15.488281 12.085938 -14.515625 12.175781 -13.148438 L 16.441406 -13.113281 C 16.441406 -16.636719 13.4375 -19.050781 8.976562 -19.050781 C 4.460938 -19.050781 2.015625 -16.746094 2.015625 -13.347656 C 2.015625 -9.515625 5.074219 -8.09375 8.632812 -7.625 C 11.152344 -7.25 12.539062 -6.800781 12.539062 -5.234375 C 12.539062 -3.832031 11.492188 -2.894531 9.246094 -2.894531 C 6.761719 -2.894531 5.503906 -4.171875 5.433594 -5.863281 L 1.257812 -5.882812 C 1.257812 -2.625 3.777344 0.558594 9.210938 0.558594 Z M 9.210938 0.558594 "/></g></g></g><g fill="#231f20" fill-opacity="1"><g transform="translate(224.143331, 50.674536)"><g><path d="M 13.921875 0 L 13.921875 -3.617188 L 11.0625 -3.617188 C 9.675781 -3.617188 8.382812 -4.246094 8.382812 -6.835938 L 8.382812 -14.75 L 13.921875 -14.75 L 13.921875 -18.492188 L 8.382812 -18.492188 L 8.382812 -23.941406 L 4.027344 -23.90625 L 4.027344 -18.492188 L 0.199219 -18.492188 L 0.199219 -14.75 L 4.027344 -14.75 L 4.027344 -7.03125 C 4.027344 -0.933594 7.375 0 10.164062 0 Z M 13.921875 0 "/></g></g></g></svg>